<?xml version="1.0" standalone="no"?>
<!DOCTYPE svg PUBLIC "-//W3C//DTD SVG 20010904//EN"
 "http://www.w3.org/TR/2001/REC-SVG-20010904/DTD/svg10.dtd">
<svg version="1.0" xmlns="http://www.w3.org/2000/svg"
 width="180.000000pt" height="180.000000pt" viewBox="0 0 180.000000 180.000000"
 preserveAspectRatio="xMidYMid meet">
<metadata>
Created by potrace 1.14, written by Peter Selinger 2001-2017
</metadata>
<g transform="translate(0.000000,180.000000) scale(0.100000,-0.100000)"
fill="#000000" stroke="none">
<path d="M1017 1240 c-31 -25 -42 -53 -28 -78 8 -15 2 -22 -40 -45 -52 -30
-110 -40 -146 -26 -13 5 -54 10 -91 12 -38 2 -73 6 -79 10 -27 17 -157 34
-189 25 -55 -15 -185 7 -246 41 -49 27 -133 51 -178 51 -20 0 -20 -12 -20
-615 0 -506 2 -615 13 -615 23 0 27 12 9 27 -16 14 -16 14 1 9 12 -4 20 2 27
19 7 18 17 25 35 25 15 0 24 4 21 9 -6 10 44 47 58 43 5 -2 16 0 25 4 35 14
72 12 79 -5 6 -15 10 -15 32 -4 18 9 20 13 8 13 -10 0 -18 7 -18 15 0 10 10
15 32 15 22 0 29 -3 21 -11 -5 -5 -8 -21 -5 -34 3 -20 7 -23 22 -15 25 13 30
13 30 -5 0 -16 -5 -19 -52 -29 -17 -4 -28 -13 -28 -22 0 -12 4 -14 13 -7 19
15 56 22 63 12 3 -5 -2 -9 -10 -9 -9 0 -16 -5 -16 -11 0 -6 9 -9 20 -6 27 7
25 -11 -2 -23 -17 -6 -6 -8 37 -5 79 4 98 8 108 20 4 6 12 3 21 -8 11 -15 32
-17 154 -17 89 0 142 4 144 11 2 5 19 12 38 15 19 4 39 11 43 17 6 8 7 5 3 -7
-5 -14 -2 -17 10 -12 8 3 18 6 20 6 3 0 2 5 -1 10 -3 6 -2 10 4 10 26 0 19
-33 -9 -42 -8 -3 74 -5 183 -6 176 -1 198 1 193 15 -7 17 10 43 26 43 6 0 6
-6 -1 -14 -16 -19 5 -26 58 -19 35 5 41 3 35 -11 -8 -20 12 -21 33 -1 15 16
38 11 28 -6 -4 -5 5 -9 19 -9 24 0 25 2 14 20 -7 11 -18 20 -25 20 -7 0 -13 4
-13 9 0 5 -3 16 -6 24 -4 10 2 14 21 14 20 0 23 -2 14 -13 -9 -11 -5 -14 24
-14 21 0 37 6 40 15 7 16 -8 29 -23 20 -5 -3 -10 -2 -10 4 0 6 -15 10 -33 9
-19 -1 -39 2 -45 6 -15 9 -16 36 -1 36 5 0 7 5 4 10 -3 6 0 10 7 10 10 0 10 2
-1 9 -15 10 -4 20 28 26 14 3 18 -1 14 -11 -3 -9 1 -14 12 -14 9 0 13 -4 10
-10 -3 -5 -1 -10 4 -10 6 0 10 -5 8 -12 -1 -7 4 -12 11 -13 7 0 17 -6 21 -14
9 -14 101 -22 101 -9 0 5 -5 8 -11 8 -5 0 -7 4 -4 10 3 5 0 7 -8 4 -8 -3 -20
3 -28 12 -12 16 -12 17 4 11 10 -4 28 -7 38 -7 13 0 18 -4 13 -13 -5 -9 -3 -9
7 1 12 11 12 14 0 21 -7 5 -11 13 -8 18 6 10 -15 32 -49 51 -15 9 -16 11 -3
12 8 0 21 -6 27 -12 10 -10 15 -10 21 1 13 20 33 4 22 -17 -11 -23 -3 -42 17
-42 14 0 14 -2 3 -9 -7 -5 -11 -13 -7 -19 3 -6 -2 -15 -11 -21 -16 -9 -16 -10
-2 -11 9 0 22 -7 29 -15 7 -8 16 -12 21 -9 5 3 9 2 8 -3 -3 -18 2 -33 11 -33
6 0 10 38 10 95 0 57 -4 95 -10 95 -5 0 -10 -7 -10 -15 0 -8 -5 -15 -11 -15
-5 0 -7 -4 -4 -10 7 -11 -8 -14 -18 -3 -4 3 7 19 23 35 l30 28 0 245 c0 251
-3 268 -38 233 -16 -16 -15 -31 1 -22 7 4 9 3 4 -2 -5 -5 -13 -10 -18 -10 -5
-1 -10 -3 -11 -4 -4 -4 -78 -12 -120 -12 -21 -1 -38 -6 -38 -12 0 -6 -4 -5 -9
3 -5 8 -16 11 -26 8 -9 -4 -14 -11 -11 -16 6 -10 -19 -9 -29 1 -4 3 -22 2 -41
-4 -19 -5 -44 -6 -54 -3 -13 4 -20 2 -20 -7 0 -8 -3 -9 -8 -3 -4 6 -19 10 -34
10 -16 -1 -28 2 -28 6 0 4 -18 7 -41 7 -23 1 -43 3 -46 6 -3 2 2 33 11 68 9
36 16 74 16 85 0 24 40 39 52 20 5 -8 9 -6 14 6 3 9 14 17 24 17 10 0 23 7 31
16 19 23 -4 34 -68 34 -29 0 -53 5 -53 10 0 6 24 10 53 10 28 1 66 7 82 14 29
12 27 13 -60 25 -49 7 -96 13 -104 14 -8 1 -17 9 -19 17 -4 13 -3 13 11 2 10
-9 50 -14 116 -15 66 0 98 -5 94 -11 -3 -6 0 -5 8 2 7 6 24 12 39 11 23 0 23
-1 5 -9 -14 -6 4 -9 55 -9 56 -1 71 2 60 10 -12 9 -12 10 -1 7 8 -3 17 -10 19
-16 3 -9 -24 -12 -95 -13 -93 -2 -95 -2 -38 -9 95 -12 185 -11 185 1 0 6 -7 9
-15 6 -8 -4 -17 -2 -20 3 -4 6 6 10 22 11 25 0 26 1 8 9 -19 8 -19 9 3 9 12 1
22 -3 22 -9 0 -5 23 -10 51 -10 34 0 48 -4 43 -11 -3 -6 -17 -9 -30 -6 -14 2
-27 1 -29 -3 -3 -4 13 -10 35 -12 39 -3 40 -3 40 29 0 32 -1 33 -46 33 -30 0
-43 -4 -38 -11 3 -6 -5 -3 -20 6 -14 10 -26 19 -26 21 0 3 29 2 65 -2 l65 -7
0 41 c0 44 -18 59 -51 42 -13 -8 -34 -7 -73 3 -32 9 -59 11 -67 6 -8 -5 -31
-9 -52 -9 -21 0 -47 -5 -57 -10 -12 -6 -27 -7 -42 -1 -13 5 -45 18 -73 29 -42
17 -64 19 -137 15 l-88 -6 0 40 c0 74 -82 110 -143 63z m-847 -145 c11 -13 8
-15 -14 -15 -25 0 -33 10 -19 23 10 11 19 8 33 -8z m1360 -36 c14 -21 0 -40
-24 -33 -17 6 -58 7 -95 2 -33 -4 -46 37 -13 45 34 8 125 -1 132 -14z m-596
-4 c26 -4 44 -10 40 -15 -11 -10 -104 -18 -104 -8 0 4 -7 5 -15 2 -17 -7 -18
-3 -9 20 4 9 14 15 23 12 9 -2 38 -7 65 -11z m789 -2 c-13 -2 -33 -2 -45 0
-13 2 -3 4 22 4 25 0 35 -2 23 -4z m-136 -9 c-3 -3 -12 -4 -19 -1 -8 3 -5 6 6
6 11 1 17 -2 13 -5z m46 -1 c-7 -2 -19 -2 -25 0 -7 3 -2 5 12 5 14 0 19 -2 13
-5z m-887 -21 c-2 -4 16 -5 40 -3 25 1 44 -1 44 -7 0 -13 40 -15 160 -8 58 4
63 3 46 -10 -20 -14 -37 -16 -151 -15 -58 0 -58 -1 -20 -9 22 -5 56 -11 77
-15 43 -7 58 -32 25 -44 -13 -5 -25 -5 -28 1 -7 11 -75 -7 -84 -22 -6 -10 37
-42 51 -39 5 1 16 0 24 -4 8 -3 40 -10 70 -16 l55 -10 -69 5 c-37 3 -85 13
-105 23 -42 22 -131 26 -176 8 l-29 -11 24 -6 c16 -4 24 -13 24 -24 -2 -14 1
-15 15 -4 26 21 31 32 18 40 -9 6 -9 8 0 8 7 0 16 -6 20 -12 15 -24 51 -37 87
-31 20 3 56 -1 83 -10 26 -8 60 -18 76 -21 15 -4 27 -11 27 -17 0 -17 -43 -48
-65 -49 -12 0 -25 -4 -31 -10 -5 -5 -25 -10 -44 -12 -19 -1 -38 -7 -42 -13 -5
-6 -8 -6 -8 3 0 6 -8 12 -17 12 -12 0 -14 -3 -7 -8 9 -5 8 -11 -2 -20 -11 -10
-14 -10 -14 0 0 8 -12 13 -30 13 -16 0 -30 -3 -30 -6 0 -3 -7 -14 -16 -25 -15
-18 -15 -18 -5 3 19 39 14 63 -15 63 -14 0 -23 -4 -20 -9 3 -5 -1 -14 -9 -21
-8 -7 -15 -9 -16 -4 0 5 -7 -7 -15 -26 -12 -30 -14 -31 -11 -8 4 27 4 27 -52
24 -31 -2 -60 0 -66 4 -5 4 -31 11 -56 14 -37 5 -48 3 -53 -9 -6 -16 -47 -21
-60 -7 -9 8 -76 10 -76 1 0 -3 -12 -5 -27 -2 -24 3 -25 2 -8 -6 19 -9 19 -10
-2 -10 -13 -1 -23 3 -23 8 0 6 -12 6 -30 -1 -17 -5 -37 -8 -44 -5 -8 3 -17 1
-19 -6 -3 -8 -13 -4 -28 12 -17 17 -19 22 -7 18 12 -4 15 -2 11 9 -3 7 -10 14
-17 14 -6 1 0 7 14 15 14 7 32 25 40 40 11 20 20 25 37 22 13 -2 28 1 33 8 8
10 3 12 -20 10 -29 -2 -35 4 -31 34 2 7 -2 10 -7 7 -15 -9 -42 4 -42 21 0 12
3 13 14 4 10 -9 15 -8 19 2 6 16 135 31 242 27 215 -7 255 -1 226 34 -13 15
-15 15 79 30 24 3 24 4 3 11 -13 4 -19 13 -16 21 3 8 0 14 -6 14 -6 0 -11 -9
-11 -19 0 -14 -7 -19 -25 -17 -31 1 -33 16 -2 17 21 1 21 1 -3 8 -30 9 -72 2
-64 -10 8 -14 -6 -10 -22 5 -12 12 -7 16 37 25 66 14 96 14 102 -1 3 -10 9 -9
22 4 17 16 41 16 31 0z m333 3 c2 -3 -14 -5 -37 -5 -23 0 -42 4 -42 10 0 9 69
5 79 -5z m251 -1 c0 -2 -9 -4 -20 -4 -11 0 -20 4 -20 9 0 5 9 7 20 4 11 -3 20
-7 20 -9z m-1004 -3 c-3 -5 5 -11 19 -13 28 -6 34 8 8 16 -10 2 19 3 65 2 92
-4 113 -14 87 -40 -12 -11 -31 -16 -61 -15 -23 2 -43 5 -42 8 0 3 0 13 -1 21
-1 13 -3 13 -14 0 -7 -8 -27 -15 -45 -15 -18 0 -37 7 -42 15 -6 10 -10 11 -10
3 0 -7 -7 -13 -16 -13 -9 0 -13 5 -9 13 4 6 0 4 -8 -6 -11 -14 -16 -15 -20 -5
-4 9 -8 10 -14 2 -11 -15 -65 -12 -71 4 -2 7 1 12 8 12 6 0 8 5 5 10 -4 6 25
10 80 10 47 0 84 -4 81 -9z m804 -25 c0 -3 -4 -8 -10 -11 -5 -3 -10 -1 -10 4
0 6 5 11 10 11 6 0 10 -2 10 -4z m-36 -97 c-8 -13 -21 -11 -27 5 -4 10 0 12
14 9 10 -3 16 -9 13 -14z m66 -30 c0 -5 -9 -9 -20 -9 -11 0 -20 6 -20 14 0 9
7 12 20 9 11 -3 20 -9 20 -14z m-128 0 c16 -9 23 -8 29 2 7 11 9 10 9 -3 0
-16 -10 -18 -71 -18 -62 0 -70 2 -59 15 15 18 63 20 92 4z m72 -4 c-4 -8 -7
-15 -9 -15 -2 0 -5 7 -9 15 -3 9 0 15 9 15 9 0 12 -6 9 -15z m-383 -201 l-8
-29 -5 27 c-3 16 0 29 6 31 16 6 16 4 7 -29z m149 -27 c0 -17 -39 -35 -63 -29
-18 4 -18 5 -1 23 20 22 64 26 64 6z m257 -14 c-9 -9 -19 -14 -23 -11 -10 10
6 28 24 28 15 0 15 -1 -1 -17z m-480 -40 c-3 -10 -5 -4 -5 12 0 17 2 24 5 18
2 -7 2 -21 0 -30z m54 10 c-12 -20 -14 -14 -5 12 4 9 9 14 11 11 3 -2 0 -13
-6 -23z m212 -44 c-1 -19 3 -36 8 -40 14 -8 24 -79 11 -79 -18 0 -43 32 -38
47 4 8 -1 30 -10 49 -13 28 -14 37 -4 49 20 24 35 12 33 -26z m-158 -97 c-3
-3 -11 0 -18 7 -9 10 -8 11 6 5 10 -3 15 -9 12 -12z m52 -8 c-3 -3 -12 -4 -19
-1 -8 3 -5 6 6 6 11 1 17 -2 13 -5z m126 -179 c4 -8 2 -17 -4 -20 -5 -4 -7
-11 -4 -16 3 -5 -1 -6 -9 -3 -12 4 -13 11 -6 24 5 9 6 20 3 24 -3 3 -2 6 4 6
6 0 13 -7 16 -15z m378 -17 c-24 -40 -75 -68 -116 -67 -28 1 -28 2 7 9 38 7
66 26 102 68 28 32 31 27 7 -10z m319 -28 c8 -5 10 -10 3 -10 -6 0 -10 -11 -8
-26 2 -20 -1 -25 -19 -22 -25 4 -33 31 -14 52 16 18 19 19 38 6z m-940 -47
c-11 -17 -11 -17 -6 0 3 10 6 24 7 30 0 9 2 9 5 0 3 -7 0 -20 -6 -30z m645 17
c-3 -5 -14 -10 -23 -9 -14 0 -13 2 3 9 27 11 27 11 20 0z m109 -45 c3 -8 1
-15 -5 -15 -6 0 -9 -7 -5 -15 3 -8 1 -15 -4 -15 -5 0 -10 8 -12 17 -3 15 -5
15 -22 -3 -11 -10 -23 -20 -28 -20 -4 -1 -11 -2 -15 -3 -5 -1 -1 -6 7 -11 13
-8 13 -10 -1 -10 -9 0 -20 7 -23 16 -3 8 -2 13 2 10 5 -3 21 11 38 29 31 37
58 45 68 20z m-785 -21 c-27 -29 -60 -48 -104 -58 -41 -10 -21 8 26 23 20 6
47 23 59 36 13 14 28 25 33 25 6 0 0 -12 -14 -26z m995 7 c3 -4 3 -11 0 -14
-8 -7 -44 4 -44 14 0 12 37 12 44 0z m-617 -47 c-3 -3 -12 -4 -19 -1 -8 3 -5
6 6 6 11 1 17 -2 13 -5z m-183 -13 c3 -5 -5 -11 -19 -13 -28 -6 -35 8 -7 15 9
3 18 5 19 6 1 0 4 -3 7 -8z m123 -4 c-14 -4 -40 -4 -59 1 -29 8 -27 9 25 8 45
0 53 -2 34 -9z m423 3 c0 -5 -4 -10 -10 -10 -5 0 -10 5 -10 10 0 6 5 10 10 10
6 0 10 -4 10 -10z m-260 -14 c-7 -7 -13 -7 -20 0 -6 6 -3 10 10 10 13 0 16 -4
10 -10z m89 -8 c-10 -7 -8 -8 8 -3 23 6 41 -9 23 -20 -6 -4 -33 -4 -61 0 -57
8 -61 27 -8 36 40 6 57 0 38 -13z m-124 1 c10 -16 -1 -22 -26 -14 -17 6 -19 9
-8 16 19 12 26 11 34 -2z m-335 -9 c-13 -9 -13 -10 0 -11 10 0 8 -3 -5 -9 -31
-14 -36 -11 -23 10 7 11 20 20 28 20 13 0 13 -1 0 -10z m-183 -16 c-3 -3 -12
-4 -19 -1 -8 3 -5 6 6 6 11 1 17 -2 13 -5z m123 2 c0 -3 -4 -8 -10 -11 -5 -3
-10 -1 -10 4 0 6 5 11 10 11 6 0 10 -2 10 -4z"/>
<path d="M888 1043 c7 -3 16 -2 19 1 4 3 -2 6 -13 5 -11 0 -14 -3 -6 -6z"/>
<path d="M735 970 c-3 -5 1 -10 10 -10 9 0 13 5 10 10 -3 6 -8 10 -10 10 -2 0
-7 -4 -10 -10z"/>
<path d="M180 1009 c0 -5 5 -7 10 -4 6 3 10 8 10 11 0 2 -4 4 -10 4 -5 0 -10
-5 -10 -11z"/>
<path d="M1780 915 c0 -8 5 -15 10 -15 6 0 10 7 10 15 0 8 -4 15 -10 15 -5 0
-10 -7 -10 -15z"/>
<path d="M1597 909 c8 -8 16 -8 30 0 16 9 14 10 -11 11 -22 0 -27 -3 -19 -11z"/>
<path d="M1512 151 c-10 -6 -9 -11 4 -22 16 -12 17 -12 11 3 -3 9 -1 19 6 22
7 2 8 5 2 5 -5 0 -16 -3 -23 -8z"/>
<path d="M145 120 c-3 -5 -1 -10 4 -10 6 0 11 5 11 10 0 6 -2 10 -4 10 -3 0
-8 -4 -11 -10z"/>
<path d="M176 111 c-3 -4 10 -8 29 -9 19 -1 36 2 39 7 3 4 -10 8 -29 9 -19 1
-36 -2 -39 -7z"/>
<path d="M280 91 c0 -5 -6 -11 -12 -14 -7 -2 -2 -2 12 0 34 6 50 23 22 23 -12
0 -22 -4 -22 -9z"/>
<path d="M1666 91 c-8 -12 18 -21 33 -11 10 5 8 9 -4 14 -21 8 -23 8 -29 -3z"/>
<path d="M1634 81 c3 -5 -2 -8 -12 -7 -9 0 -17 -6 -17 -14 0 -10 8 -14 21 -12
12 2 24 -4 27 -13 4 -8 16 -15 27 -15 11 0 20 -4 20 -10 0 -5 15 -10 33 -10
l32 1 -27 24 c-16 13 -28 29 -28 35 0 5 -5 10 -11 10 -5 0 -7 -4 -4 -10 11
-18 -11 -10 -30 10 -18 20 -41 28 -31 11z"/>
<path d="M1753 43 c9 -2 15 -9 12 -14 -4 -5 3 -9 14 -9 12 0 21 4 21 9 0 11
-26 21 -48 20 -15 -1 -15 -2 1 -6z"/>
<path d="M270 30 c-8 -5 -10 -10 -5 -10 6 0 17 5 25 10 8 5 11 10 5 10 -5 0
-17 -5 -25 -10z"/>
<path d="M1540 30 c0 -5 5 -10 10 -10 6 0 10 5 10 10 0 6 -4 10 -10 10 -5 0
-10 -4 -10 -10z"/>
<path d="M1586 16 c3 -9 11 -16 16 -16 13 0 5 23 -10 28 -7 2 -10 -2 -6 -12z"/>
<path d="M1616 15 c4 -8 7 -15 9 -15 2 0 5 7 9 15 3 9 0 15 -9 15 -9 0 -12 -6
-9 -15z"/>
<path d="M882 11 c-9 -5 -3 -8 18 -9 17 0 28 4 25 9 -8 11 -26 11 -43 0z"/>
</g>
</svg>
